<?xml version="1.0" encoding="utf-8"?>
<svg xmlns="http://www.w3.org/2000/svg" viewBox="0 0 24 24" width="480" height="480">
  <path d="M12.001953 2.0292969C11.210578 2.0290469 10.418703 2.3170781 9.8457031 2.8925781L8.1699219 4.5683594L11.828125 8.2285156L15.658203 4.3945312L14.158203 2.8925781C13.584703 2.3170781 12.793328 2.0295469 12.001953 2.0292969 z M 17.072266 5.8105469L13.242188 9.6445312L15.166016 11.568359L19.013672 7.7519531L17.072266 5.8105469 z M 6.7558594 5.984375L2.8945312 9.8457031C2.3165313 10.419703 2 11.184 2 12C2 12.816 2.3165781 13.580344 2.8925781 14.152344L4.4023438 15.662109L10.414062 9.6445312L6.7558594 5.984375 z M 20.427734 9.1660156L16.580078 12.984375L19.429688 15.835938L21.109375 14.15625C21.680375 13.58225 21.997 12.821484 22 12.021484C22.007 11.198484 21.689422 10.426656 21.107422 9.8476562L20.427734 9.1660156 z M 11.828125 11.060547L5.8164062 17.076172L9.8457031 21.105469C10.419703 21.682469 11.184 22 12 22C12.82 22 13.586344 21.682422 14.152344 21.107422L18.013672 17.248047L11.828125 11.060547 z" fill="#FFFFFF" />
</svg>